# xmcd
#
# Track frame offsets:
#	150
#	19890
#	37032
#	53400
#	65177
#	80675
#	103142
#	121930
#	136642
#	164770
#	180517
#	197867
#	219297
#	238070
#	257692
#	278445
#	298120
#	318620
#
# Disc length: 4401
#
# Revision: 1
# Processed by: cddbd v1.5.1PL0 Copyright (c) Steve Scherf et al.
# Submitted via: dBpowerAMP V4.0
# Normalized: r0:TSWAP
#
DISCID=0d112f12
DTITLE=Various Artist - THE VERY BEST OF 70'S LOVE SONGS
DYEAR=1900
DGENRE=Slow Rock
TTITLE0=RICHARD MARX - RIGHT HERE WAITING
TTITLE1=GLENN MEDEIROS - NOTHING'S GONNA CHANGE MY LOVE FOR YOU
TTITLE2=THE RIGHTEOUS BROTHERS - UNCHAINED MELODY
TTITLE3=THE PLATTERS - ONLY YOU
TTITLE4=JOHNNY HATES JAZZ - SHATTERED DREAMS
TTITLE5=GEORGE MICHEAL - CARELESS WHISPER
TTITLE6=BERLIN - TAKE MY BREATH AWAY
TTITLE7=SHAKIN STEVENS - BECAUSE I LOVE YOU
TTITLE8=STEVIE WONDER - I JUST CALLED TO SAY I LOVE YOU
TTITLE9=ROBERTA FLACK AND PEABO BRYSON - TONIGHT I CELEBRATE MY LOVE
TTITLE10=ALIAS - MORE THAN WORD CAN SAY
TTITLE11=FOREIGNER - WAITING FOR A GIRL LIKE YOU
TTITLE12=STEPHEN BISOP - IT MIGHT BE YOU
TTITLE13=JULIE ANDREW - GLORY OF LOVE
TTITLE14=JULIE ANDREW - CASABLANCA
TTITLE15=JULIE ANDREW - OH PATTI (DON'T FEEL SORRY FOR LOVER BOY)
TTITLE16=JULIE ANDREW - (I JUST) DIE IN YOUR ARMS
TTITLE17=JULIE ANDREW - THE SOUND OF MUSIC
EXTD=
EXTT0=
EXTT1=
EXTT2=
EXTT3=
EXTT4=
EXTT5=
EXTT6=
EXTT7=
EXTT8=
EXTT9=
EXTT10=
EXTT11=
EXTT12=
EXTT13=
EXTT14=
EXTT15=
EXTT16=
EXTT17=
PLAYORDER=
